Avatar 2009 SWESUB EXTENDED 720p BRRip XviD-ASPiRE

Undertext: SweSUB Group © FRiEND, Incubator, Ante40, MrW och Dvärghamstern
 
http://www.imdb.com/title/tt0499549/

Handling:

Mästerregissören James Cameron är tillbaka med ett actionpackat äventyr olikt allt 
vi tidigare sett. 'AVATAR' tar oss med till en spektakulär ny värld bortom fantasins gränser där en motvillig hjälte tvingas ta strid för vad han egentligen tror på. Den desillusionerade marinsoldaten Jake Sully skickas till planeten Pandora för att med alla medel övertyga urbefolkningen att låta människan exploatera deras natur för att utvinna en ny energikälla. Allt eftersom Jake lär känna planeten ochfolket blir han mer och mer osäker på sitt uppdrag och när kampen ställs på sin spets måste han välja sida.

iNFO:

Genre: Action, Äventyr, Fantasy, Sci-Fi 
Regi: James Cameron
Medverkande: Sam Worthington, Zoe Saldana, Sigourney Weaver, Stephen Lang
Produktionsland: USA, England
Språk: Engelska, Spanska
Text: Svenska

General:
Format                           : AVI
Format/Info                      : Audio Video Interleave
Format profile                   : OpenDML
File size                        : 5.16 GiB
Duration                         : 2h 58mn
Overall bit rate                 : 4 145 Kbps

Video:
ID                               : 0
Format                           : MPEG-4 Visual
Format profile                   : Advanced Simple@L5
Format settings, BVOP            : 1
Format settings, QPel            : No
Format settings, GMC             : No warppoints
Format settings, Matrix          : Default (H.263)
Muxing mode                      : Packed bitstream
Codec ID                         : XVID
Codec ID/Hint                    : XviD
Duration                         : 2h 58mn
Bit rate                         : 3 498 Kbps
Width                            : 1 280 pixels
Height                           : 720 pixels
Display aspect ratio             : 16:9
Frame rate                       : 23.976 fps
Color space                      : YUV
Chroma subsampling               : 4:2:0
Bit depth                        : 8 bits
Scan type                        : Progressive
Compression mode                 : Lossy
Bits/(Pixel*Frame)               : 0.158
Stream size                      : 4.35 GiB (84%)
Writing library                  : XviD 62

Audio:
ID                               : 1
Format                           : AC-3
Format/Info                      : Audio Coding 3
Mode extension                   : CM (complete main)
Codec ID                         : 2000
Duration                         : 2h 58mn
Bit rate mode                    : Constant
Bit rate                         : 640 Kbps
Channel(s)                       : 6 channels
Channel positions                : Front: L C R, Side: L R, LFE
Sampling rate                    : 48.0 KHz
Bit depth                        : 16 bits
Compression mode                 : Lossy
Stream size                      : 816 MiB (15%)
Alignment                        : Split accross interleaves
Interleave, duration             : 64 ms (1.53 video frames)
Interleave, preload duration     : 500 ms

ASPiRE